<svg xmlns="http://www.w3.org/2000/svg" viewBox="0 0 74.3 68.8"><defs><style>.cls-1{fill:#fff;}.cls-2{fill:#d8d8d8;}</style></defs><title>Asset 9</title><g id="Layer_2" data-name="Layer 2"><g id="Lessenoverzicht"><g id="design"><g id="card"><g id="chef_hat"><rect class="cls-1" x="18.5" y="29.2" width="39.7" height="39.66"/><path class="cls-2" d="M18.5,43.3a15.2,15.2,0,0,0,8.1-5,19.4,19.4,0,0,0,11.8,3.9,19.7,19.7,0,0,0,12.5-4.5,14.2,14.2,0,0,0,7.3,3.1V29.2H18.5Z"/><path class="cls-1" d="M60,8.8a15.7,15.7,0,0,0-4.9.8,19.4,19.4,0,0,0-34.3,1.6,15.6,15.6,0,0,0-5.7-1.1,15.1,15.1,0,1,0,0,30.1,14.9,14.9,0,0,0,11.5-5.4,19.5,19.5,0,0,0,11.8,4,19.2,19.2,0,0,0,12.5-4.6A13.7,13.7,0,0,0,60,37.5,14.4,14.4,0,0,0,60,8.8Z"/></g></g></g></g></g></svg>