<svg xmlns="http://www.w3.org/2000/svg" viewBox="0 0 86.1 54.5"><defs><style>.cls-1{fill:#d1d1d1;}.cls-2{fill:#fff;}.cls-3{fill:#e8e8e8;}.cls-4{fill:#e0e0e0;}</style></defs><title>Asset 11</title><g id="Layer_2" data-name="Layer 2"><g id="Lessenoverzicht"><g id="card3"><ellipse class="cls-1" cx="43" cy="39.8" rx="43" ry="14.7"/><rect class="cls-1" y="36.9" width="86.1" height="2.92"/><ellipse class="cls-2" cx="43" cy="36.9" rx="43" ry="14.7"/><path class="cls-1" d="M82.7,40.2C68.3,52,17.8,52,3.4,40.2a4.3,4.3,0,0,1-1.5-3.3C2.6,21.1,19,4.9,43,4.9s40.4,16.2,41.1,32A3.9,3.9,0,0,1,82.7,40.2Z"/><path class="cls-3" d="M82.7,39.5c-14.4,11.9-64.9,11.9-79.3,0a4.1,4.1,0,0,1-1.5-3.3C2.6,20.5,19,4.3,43,4.3S83.4,20.5,84.1,36.2A3.8,3.8,0,0,1,82.7,39.5Z"/><path class="cls-4" d="M84.1,36.2a3.8,3.8,0,0,1-1.4,3.3c-7.9,6.5-26.3,9.4-43.9,8.9,14.7-.5,28.8-3.4,35.4-8.9a4.1,4.1,0,0,0,1.5-3.3C75,21.4,60.5,6.2,38.8,4.4H43C67.1,4.3,83.4,20.5,84.1,36.2Z"/><path class="cls-2" d="M38.3,5.6C22.9,9.7,12.5,19.9,8.4,30.8a1.2,1.2,0,0,1-1.2.8h0a1.3,1.3,0,0,1-1.1-1.8C10.7,19.2,21.3,9.5,36.8,6Z"/><circle class="cls-3" cx="43" cy="2.5" r="2.5" transform="translate(31.3 43.9) rotate(-77.5)"/><path class="cls-4" d="M45.5,2.5A2.5,2.5,0,0,1,43,4.9h-.6a2.5,2.5,0,0,0,1.8-2.3A2.5,2.5,0,0,0,42.4.1H43A2.5,2.5,0,0,1,45.5,2.5Z"/></g></g></g></svg>