<svg xmlns="http://www.w3.org/2000/svg" xmlns:xlink="http://www.w3.org/1999/xlink" viewBox="0 0 79.1 79.1"><defs><style>.cls-1{isolation:isolate;}.cls-2{fill:url(#Degradado_sin_nombre_15);}.cls-3{fill:url(#Degradado_sin_nombre_17);}.cls-4{fill:#be2501;}.cls-5{fill:url(#Degradado_sin_nombre_12);}.cls-6{fill:url(#Degradado_sin_nombre_12-2);}.cls-7{fill:url(#Degradado_sin_nombre_12-3);}.cls-8{fill:url(#Degradado_sin_nombre_12-4);}.cls-9{fill:url(#Degradado_sin_nombre_21);}.cls-10{fill:url(#Degradado_sin_nombre_21-2);}.cls-11{fill:url(#Degradado_sin_nombre_21-3);}.cls-12{fill:url(#Degradado_sin_nombre_21-4);}.cls-13{fill:url(#Degradado_sin_nombre_21-5);}.cls-14{fill:url(#Degradado_sin_nombre_21-6);}.cls-15{fill:url(#Degradado_sin_nombre_21-7);}.cls-16{fill:url(#Degradado_sin_nombre_21-8);}.cls-17{fill:url(#Degradado_sin_nombre_21-9);}.cls-18{fill:url(#Degradado_sin_nombre_12-5);}.cls-19{fill:url(#Degradado_sin_nombre_12-6);}.cls-20{fill:url(#Degradado_sin_nombre_12-7);}.cls-21{fill:url(#Degradado_sin_nombre_12-8);}.cls-22{fill:url(#Degradado_sin_nombre_12-9);}.cls-23{fill:url(#Degradado_sin_nombre_12-10);}.cls-24{fill:url(#Degradado_sin_nombre_12-11);}.cls-25{fill:url(#Degradado_sin_nombre_12-12);}.cls-26{fill:url(#Degradado_sin_nombre_12-13);}.cls-27{fill:url(#Degradado_sin_nombre_12-14);}.cls-28{fill:url(#Degradado_sin_nombre_12-15);}.cls-29{fill:url(#Degradado_sin_nombre_12-16);}.cls-30{fill:url(#Degradado_sin_nombre_12-17);}.cls-31{fill:url(#Degradado_sin_nombre_12-18);}.cls-32{fill:url(#Degradado_sin_nombre_12-19);}.cls-33{fill:url(#Degradado_sin_nombre_12-20);}.cls-34{fill:url(#Degradado_sin_nombre_12-21);}.cls-35{fill:url(#Degradado_sin_nombre_12-22);}.cls-36{fill:url(#Degradado_sin_nombre_12-23);}.cls-37{fill:url(#Degradado_sin_nombre_12-24);}.cls-38{fill:url(#Degradado_sin_nombre_12-25);}.cls-39{fill:url(#Degradado_sin_nombre_12-26);}.cls-40{fill:url(#Degradado_sin_nombre_21-10);}.cls-41{mix-blend-mode:soft-light;fill:url(#Degradado_sin_nombre_9);}</style><radialGradient id="Degradado_sin_nombre_15" cx="39.53" cy="39.53" r="39.53" gradientTransform="translate(39.5 -16.4) rotate(45)" gradientUnits="userSpaceOnUse"><stop offset="0.83" stop-color="#e9e9e3"/><stop offset="1" stop-color="#fff"/></radialGradient><linearGradient id="Degradado_sin_nombre_17" x1="39.53" y1="72.91" x2="39.53" y2="6.05" gradientTransform="translate(30.1 -15.6) rotate(35.3)" gradientUnits="userSpaceOnUse"><stop offset="0" stop-color="#ce3600"/><stop offset="0.54" stop-color="#c30"/><stop offset="0.87" stop-color="#c42b01"/><stop offset="1" stop-color="#be2501"/></linearGradient><linearGradient id="Degradado_sin_nombre_12" x1="1022.96" y1="-2079.55" x2="1027.95" y2="-2079.55" gradientTransform="translate(-709.9 -2157) rotate(135)" gradientUnits="userSpaceOnUse"><stop offset="0" stop-color="#85c142"/><stop offset="0.11" stop-color="#7db82f"/><stop offset="0.26" stop-color="#75ae1b"/><stop offset="0.44" stop-color="#6fa70c"/><stop offset="0.66" stop-color="#6ca304"/><stop offset="1" stop-color="#6ba201"/></linearGradient><linearGradient id="Degradado_sin_nombre_12-2" x1="1025.52" y1="-2079.55" x2="1028.63" y2="-2079.55" xlink:href="#Degradado_sin_nombre_12"/><linearGradient id="Degradado_sin_nombre_12-3" x1="-255.27" y1="-2455.56" x2="-250.82" y2="-2455.56" gradientTransform="translate(534.7 -2379.6) rotate(-162.7)" xlink:href="#Degradado_sin_nombre_12"/><linearGradient id="Degradado_sin_nombre_12-4" x1="-252.99" y1="-2455.56" x2="-250.21" y2="-2455.56" gradientTransform="translate(534.7 -2379.6) rotate(-162.7)" xlink:href="#Degradado_sin_nombre_12"/><linearGradient id="Degradado_sin_nombre_21" x1="928.54" y1="-349.86" x2="924.81" y2="-346.13" gradientTransform="translate(-888.3 398.5)" gradientUnits="userSpaceOnUse"><stop offset="0" stop-color="#f8b133"/><stop offset="0.08" stop-color="#f9b940"/><stop offset="0.24" stop-color="#fbc454"/><stop offset="0.42" stop-color="#fccd63"/><stop offset="0.64" stop-color="#fdd26b"/><stop offset="1" stop-color="#fdd36e"/></linearGradient><linearGradient id="Degradado_sin_nombre_21-2" x1="1260.89" y1="-1370.63" x2="1258.49" y2="-1368.23" gradientTransform="matrix(1, 0, 0, 1, -1234.17, 1427.48)" xlink:href="#Degradado_sin_nombre_21"/><linearGradient id="Degradado_sin_nombre_21-3" x1="1219.39" y1="-1393.78" x2="1216.99" y2="-1391.38" gradientTransform="translate(-1165 1412)" xlink:href="#Degradado_sin_nombre_21"/><linearGradient id="Degradado_sin_nombre_21-4" x1="932.93" y1="-378.41" x2="930.53" y2="-376.02" gradientTransform="translate(-869.2 410.5)" xlink:href="#Degradado_sin_nombre_21"/><linearGradient id="Degradado_sin_nombre_21-5" x1="908.52" y1="-338.49" x2="906.12" y2="-336.09" gradientTransform="translate(-890.2 381.5)" xlink:href="#Degradado_sin_nombre_21"/><linearGradient id="Degradado_sin_nombre_21-6" x1="901.34" y1="-366.47" x2="898.94" y2="-364.07" gradientTransform="translate(-868.4 384.6)" xlink:href="#Degradado_sin_nombre_21"/><linearGradient id="Degradado_sin_nombre_21-7" x1="944.06" y1="-354.38" x2="941.66" y2="-351.98" gradientTransform="translate(-889.4 411.3)" xlink:href="#Degradado_sin_nombre_21"/><linearGradient id="Degradado_sin_nombre_21-8" x1="420.71" y1="-43.05" x2="416.98" y2="-39.32" gradientTransform="translate(-377.3 70.7)" xlink:href="#Degradado_sin_nombre_21"/><linearGradient id="Degradado_sin_nombre_21-9" x1="906.48" y1="-352.87" x2="903.49" y2="-349.88" gradientTransform="translate(-879.6 384)" xlink:href="#Degradado_sin_nombre_21"/><linearGradient id="Degradado_sin_nombre_12-5" x1="1994.06" y1="-103.96" x2="1991.7" y2="-101.61" gradientTransform="matrix(0.46, 0, 0, 0.78, -896.84, 126.85)" xlink:href="#Degradado_sin_nombre_12"/><linearGradient id="Degradado_sin_nombre_12-6" x1="-685.7" y1="370.83" x2="-688.05" y2="373.18" gradientTransform="matrix(0.47, 0, 0, 0.78, 345.09, -226.22)" xlink:href="#Degradado_sin_nombre_12"/><linearGradient id="Degradado_sin_nombre_12-7" x1="2042.05" y1="-122.69" x2="2039.7" y2="-120.33" gradientTransform="matrix(0.46, 0, 0, 0.78, -893.06, 146.6)" xlink:href="#Degradado_sin_nombre_12"/><linearGradient id="Degradado_sin_nombre_12-8" x1="1988.3" y1="-88.2" x2="1985.95" y2="-85.85" gradientTransform="matrix(0.46, 0, 0, 0.78, -904.76, 121.51)" xlink:href="#Degradado_sin_nombre_12"/><linearGradient id="Degradado_sin_nombre_12-9" x1="1795.89" y1="-2387.37" x2="1793.54" y2="-2385.02" gradientTransform="translate(-824.7 1910.5) scale(0.46 0.78)" xlink:href="#Degradado_sin_nombre_12"/><linearGradient id="Degradado_sin_nombre_12-10" x1="2016.12" y1="-99.18" x2="2013.77" y2="-96.82" gradientTransform="matrix(0.46, 0, 0, 0.78, -902.49, 133.04)" xlink:href="#Degradado_sin_nombre_12"/><linearGradient id="Degradado_sin_nombre_12-11" x1="1944.24" y1="-133.59" x2="1941.89" y2="-131.24" gradientTransform="matrix(0.46, 0, 0, 0.78, -873.68, 117.25)" xlink:href="#Degradado_sin_nombre_12"/><linearGradient id="Degradado_sin_nombre_12-12" x1="1809.22" y1="-2472.08" x2="1806.87" y2="-2469.73" gradientTransform="matrix(0.46, 0, 0, 0.78, -794.5, 1982.48)" xlink:href="#Degradado_sin_nombre_12"/><linearGradient id="Degradado_sin_nombre_12-13" x1="1828.29" y1="-2420.83" x2="1825.94" y2="-2418.48" gradientTransform="matrix(0.46, 0, 0, 0.78, -836.65, 1918.37)" xlink:href="#Degradado_sin_nombre_12"/><linearGradient id="Degradado_sin_nombre_12-14" x1="1799.75" y1="-2493.84" x2="1797.4" y2="-2491.49" gradientTransform="matrix(0.46, 0, 0, 0.78, -775.5, 2009.28)" xlink:href="#Degradado_sin_nombre_12"/><linearGradient id="Degradado_sin_nombre_12-15" x1="1777.98" y1="-2440.38" x2="1775.63" y2="-2438.03" gradientTransform="matrix(0.46, 0, 0, 0.78, -785.67, 1929.5)" xlink:href="#Degradado_sin_nombre_12"/><linearGradient id="Degradado_sin_nombre_12-16" x1="1773" y1="-2469.02" x2="1770.65" y2="-2466.67" gradientTransform="matrix(0.46, 0, 0, 0.78, -767.21, 1966.89)" xlink:href="#Degradado_sin_nombre_12"/><linearGradient id="Degradado_sin_nombre_12-17" x1="-2190.88" y1="-2129.02" x2="-2193.23" y2="-2126.66" gradientTransform="matrix(0.47, 0, 0, 0.78, 1042.93, 1687.98)" xlink:href="#Degradado_sin_nombre_12"/><linearGradient id="Degradado_sin_nombre_12-18" x1="-1028.19" y1="-2726.83" x2="-1030.54" y2="-2724.47" gradientTransform="matrix(0.46, 0, 0, 0.78, 526.73, 2163.96)" xlink:href="#Degradado_sin_nombre_12"/><linearGradient id="Degradado_sin_nombre_12-19" x1="-1061.05" y1="-2712.81" x2="-1063.4" y2="-2710.45" gradientTransform="matrix(0.46, 0, 0, 0.78, 560.17, 2148.1)" xlink:href="#Degradado_sin_nombre_12"/><linearGradient id="Degradado_sin_nombre_12-20" x1="-977.65" y1="-2745.25" x2="-980" y2="-2742.89" gradientTransform="matrix(0.46, 0, 0, 0.78, 476.44, 2183.53)" xlink:href="#Degradado_sin_nombre_12"/><linearGradient id="Degradado_sin_nombre_12-21" x1="-1041.75" y1="-2774.27" x2="-1044.1" y2="-2771.92" gradientTransform="matrix(0.46, 0, 0, 0.78, 526.21, 2237.94)" xlink:href="#Degradado_sin_nombre_12"/><linearGradient id="Degradado_sin_nombre_12-22" x1="2713.06" y1="-1367.26" x2="2710.71" y2="-1364.91" gradientTransform="matrix(0.46, 0, 0, 0.78, -1228.5, 1098.49)" xlink:href="#Degradado_sin_nombre_12"/><linearGradient id="Degradado_sin_nombre_12-23" x1="2780.01" y1="-1387.47" x2="2777.66" y2="-1385.12" gradientTransform="matrix(0.46, 0, 0, 0.78, -1244.99, 1146.38)" xlink:href="#Degradado_sin_nombre_12"/><linearGradient id="Degradado_sin_nombre_12-24" x1="2698.96" y1="-1395.14" x2="2696.61" y2="-1392.79" gradientTransform="matrix(0.46, 0, 0, 0.78, -1200.03, 1114.55)" xlink:href="#Degradado_sin_nombre_12"/><linearGradient id="Degradado_sin_nombre_12-25" x1="2740.96" y1="-1411.84" x2="2738.61" y2="-1409.49" gradientTransform="matrix(0.46, 0, 0, 0.78, -1206.99, 1148.14)" xlink:href="#Degradado_sin_nombre_12"/><linearGradient id="Degradado_sin_nombre_12-26" x1="273.48" y1="-2913.45" x2="271.13" y2="-2911.1" gradientTransform="matrix(0.46, 0, 0, 0.78, -76.2, 2291.03)" xlink:href="#Degradado_sin_nombre_12"/><linearGradient id="Degradado_sin_nombre_21-10" x1="935.23" y1="-365.04" x2="932.25" y2="-362.05" gradientTransform="translate(-879.4 407.9)" xlink:href="#Degradado_sin_nombre_21"/><radialGradient id="Degradado_sin_nombre_9" cx="39.45" cy="99.33" r="91.35" gradientTransform="translate(41.1 -35.1) rotate(32.7) scale(0.98)" gradientUnits="userSpaceOnUse"><stop offset="0" stop-color="#707070" stop-opacity="0"/><stop offset="0.04" stop-color="#6d6d6d" stop-opacity="0.04"/><stop offset="1" stop-color="#1c1c1b"/></radialGradient></defs><title>Asset 14</title><g class="cls-1"><g id="Layer_2" data-name="Layer 2"><g id="Lessenoverzicht"><g id="card3"><g id="icon"><circle class="cls-2" cx="39.5" cy="39.5" r="39.5" transform="translate(-16.4 39.5) rotate(-45)"/><circle class="cls-3" cx="39.5" cy="39.5" r="34.6" transform="translate(-15.6 30.1) rotate(-35.3)"/><path class="cls-4" d="M39.5,11.3a27.8,27.8,0,0,0-10.7,2.3,29.4,29.4,0,0,0-8.9,6.3A30,30,0,0,0,12,39.5a28,28,0,0,0,7.7,19.8,28,28,0,0,0,9.1,6.1,30.2,30.2,0,0,0,10.7,1.9A29.2,29.2,0,0,0,50.1,65a28.4,28.4,0,0,0,8.8-6.1,27.6,27.6,0,0,0,7.9-19.4A28.4,28.4,0,0,0,50.2,13.6,27.8,27.8,0,0,0,39.5,11.3Zm0-.1a28.9,28.9,0,0,1,10.9,2A27.8,27.8,0,0,1,66.5,28.4a28.2,28.2,0,0,1,0,22.3,27.6,27.6,0,0,1-6.4,9.4,27.4,27.4,0,0,1-9.5,6.2,28,28,0,0,1-11.1,2,29.5,29.5,0,0,1-20.2-8.6,31.6,31.6,0,0,1-6.4-9.2,29.3,29.3,0,0,1-2.4-11,26.5,26.5,0,0,1,2.2-11.1,27.2,27.2,0,0,1,6.4-9.3,28.6,28.6,0,0,1,9.5-5.9A31.4,31.4,0,0,1,39.5,11.2Z"/><path class="cls-4" d="M23.9,55.2a20.4,20.4,0,0,0,7.2,4.7,22.2,22.2,0,0,0,8.4,1.4,23.3,23.3,0,0,0,15.4-6.4,22.2,22.2,0,0,0,6.6-15.4,21.4,21.4,0,0,0-13.7-20,21.2,21.2,0,0,0-8.3-1.6,21.9,21.9,0,0,0-15.2,6.4,22.8,22.8,0,0,0-6.6,15.2A22.4,22.4,0,0,0,19.2,48,20,20,0,0,0,23.9,55.2Zm-.1.1a23.7,23.7,0,0,1-6.9-15.8,22,22,0,0,1,1.6-8.7,21.7,21.7,0,0,1,4.9-7.4,22,22,0,0,1,7.4-5,23.6,23.6,0,0,1,8.7-1.7,23.4,23.4,0,0,1,8.7,1.9A23.1,23.1,0,0,1,61.9,39.5a25.7,25.7,0,0,1-1.5,8.7,23.5,23.5,0,0,1-4.8,7.4,21.7,21.7,0,0,1-7.4,4.9,19.8,19.8,0,0,1-8.7,1.6A23.1,23.1,0,0,1,23.8,55.3Z"/><path class="cls-4" d="M24,39.5a11.9,11.9,0,0,0,1.3,5.9A15.4,15.4,0,0,0,29,50.1,20.4,20.4,0,0,0,33.9,53a18.1,18.1,0,0,0,5.6,1.2,16.6,16.6,0,0,0,5.8-.8,13.1,13.1,0,0,0,5-3.1,12.5,12.5,0,0,0,3.3-4.9,13.3,13.3,0,0,0,.9-5.9,15.5,15.5,0,0,0-4.7-10.2,14.8,14.8,0,0,0-10.3-4.1A15.8,15.8,0,0,0,29,29a14.3,14.3,0,0,0-3.7,4.7L24.7,35c-.1.5-.3,1-.4,1.5a7.7,7.7,0,0,0-.2,1.5Zm-.3,0V38l.2-1.6a8,8,0,0,1,.3-1.5l.4-1.5a15.3,15.3,0,0,1,3.2-5.5,13.7,13.7,0,0,1,5.2-4,17.5,17.5,0,0,1,6.4-1.4A16.1,16.1,0,0,1,46,23.8a17.5,17.5,0,0,1,5.5,3.8,16.3,16.3,0,0,1,4.4,11.9,17.8,17.8,0,0,1-5,11.4,19.4,19.4,0,0,1-5.1,3.8,16.7,16.7,0,0,1-6.3,1.6A15.6,15.6,0,0,1,33.1,55a14,14,0,0,1-5.2-3.8,19.3,19.3,0,0,1-3.2-5.5A18.7,18.7,0,0,1,23.7,39.5Z"/><path class="cls-5" d="M32,35.1l6.8,6.8S40,35.1,32,35.1Z"/><path class="cls-6" d="M38.8,41.9,32,35.1C32,43.1,38.8,41.9,38.8,41.9Z"/><path class="cls-7" d="M46,35.8l-2.5,8.1S49.3,42,46,35.8Z"/><path class="cls-8" d="M43.5,43.9,46,35.8C39.7,39,43.5,43.9,43.5,43.9Z"/><rect class="cls-9" x="36.8" y="48" width="4" height="4" rx="1.7" transform="translate(46.8 -12.8) rotate(45)"/><rect class="cls-10" x="24.5" y="56.4" width="2.6" height="2.57" rx="1.1" transform="translate(85.9 38.5) rotate(96.4)"/><rect class="cls-11" x="52.1" y="17.7" width="2.6" height="2.57" rx="1.1" transform="translate(78.2 -31.9) rotate(96.4)"/><rect class="cls-12" x="61.5" y="31.7" width="2.6" height="2.57" rx="1.1" transform="translate(41.7 -34.8) rotate(45)"/><rect class="cls-13" x="16.1" y="42.6" width="2.6" height="2.57" rx="1.1" transform="translate(36.1 0.6) rotate(45)"/><rect class="cls-14" x="30.8" y="17.8" width="2.6" height="2.57" rx="1.1" transform="translate(22.9 -17.1) rotate(45)"/><rect class="cls-15" x="52.4" y="56.5" width="2.6" height="2.57" rx="1.1" transform="translate(56.6 -21) rotate(45)"/><rect class="cls-16" x="40" y="27" width="4" height="4" rx="1.7" transform="translate(11.2 -11.7) rotate(18.2)"/><rect class="cls-17" x="24.1" y="30.7" width="3.2" height="3.21" rx="1.4" transform="translate(30.4 -8.7) rotate(45)"/><rect class="cls-18" x="29.4" y="45.2" width="1.1" height="1.88" rx="0.6" transform="translate(41.4 -7.7) rotate(45)"/><rect class="cls-19" x="25.2" y="63.5" width="1.1" height="1.88" rx="0.6" transform="translate(-18.1 10.6) rotate(-17.4)"/><rect class="cls-20" x="55.5" y="50.7" width="1.1" height="1.88" rx="0.6" transform="translate(52.9 -24.5) rotate(45)"/><rect class="cls-21" x="18.8" y="52.1" width="1.1" height="1.88" rx="0.6" transform="translate(43.2 1.9) rotate(45)"/><rect class="cls-22" x="9.4" y="43.5" width="1.1" height="1.88" rx="0.6" transform="translate(48.5 68.9) rotate(135)"/><rect class="cls-23" x="34" y="55.1" width="1.1" height="1.88" rx="0.6" transform="translate(49.8 -8) rotate(45)"/><rect class="cls-24" x="29.4" y="12.5" width="1.1" height="1.88" rx="0.6" transform="translate(18.3 -17.3) rotate(45)"/><rect class="cls-25" x="45.4" y="49.1" width="1.1" height="1.88" rx="0.6" transform="translate(113.6 56.8) rotate(138.3)"/><rect class="cls-26" x="12.2" y="25.1" width="1.1" height="1.88" rx="0.6" transform="translate(39.5 37) rotate(138.3)"/><rect class="cls-27" x="60" y="58.9" width="1.1" height="1.88" rx="0.6" transform="translate(145.7 64.2) rotate(138.3)"/><rect class="cls-28" x="39.8" y="20.9" width="1.1" height="1.88" rx="0.6" transform="translate(85.1 11.4) rotate(138.3)"/><rect class="cls-29" x="56.4" y="36.1" width="1.1" height="1.88" rx="0.6" transform="translate(124.2 26.8) rotate(138.3)"/><rect class="cls-30" x="23.3" y="22.9" width="1.1" height="1.88" rx="0.6" transform="translate(19.8 57.3) rotate(-128.1)"/><rect class="cls-31" x="47.8" y="31.4" width="1.1" height="1.88" rx="0.6" transform="translate(82.3 79.6) rotate(-159.4)"/><rect class="cls-32" x="66" y="26.5" width="1.1" height="1.88" rx="0.6" transform="translate(119.2 76.5) rotate(-159.4)"/><rect class="cls-33" x="20.8" y="36.6" width="1.1" height="1.88" rx="0.6" transform="translate(28.1 80.2) rotate(-159.4)"/><rect class="cls-34" x="40.7" y="68.3" width="1.1" height="1.88" rx="0.6" transform="translate(55.5 148.6) rotate(-159.4)"/><rect class="cls-35" x="32.1" y="29" width="1.1" height="1.88" rx="0.6" transform="translate(64 -1.3) rotate(92.6)"/><rect class="cls-36" x="46.5" y="60.8" width="1.1" height="1.88" rx="0.6" transform="translate(110.8 17.6) rotate(92.6)"/><rect class="cls-37" x="54.1" y="23.4" width="1.1" height="1.88" rx="0.6" transform="translate(81.5 -29.2) rotate(92.5)"/><rect class="cls-38" x="66.3" y="43.5" width="1.1" height="1.88" rx="0.6" transform="translate(114.3 -20.3) rotate(92.6)"/><rect class="cls-39" x="49.3" y="12.5" width="1.1" height="1.88" rx="0.6" transform="translate(101.2 19) rotate(171.1)"/><rect class="cls-40" x="53.1" y="42.4" width="3.2" height="3.21" rx="1.4" transform="translate(47.2 -25.8) rotate(45)"/><circle class="cls-41" cx="39.5" cy="39.5" r="36.3" transform="translate(-15.1 27.6) rotate(-32.7)"/></g></g></g></g></g></svg>