<svg xmlns="http://www.w3.org/2000/svg" xmlns:xlink="http://www.w3.org/1999/xlink" viewBox="0 0 79.9 87.1"><defs><style>.cls-1,.cls-10,.cls-2,.cls-3,.cls-4,.cls-5,.cls-6,.cls-7,.cls-8,.cls-9{fill-rule:evenodd;}.cls-1{fill:url(#Skintone_8);}.cls-2{fill:url(#Skintone_8-2);}.cls-3{fill:url(#Skintone_8-3);}.cls-4{fill:#231f20;}.cls-5{fill:#806a50;}.cls-6{fill:#7c6449;}.cls-7{fill:#625139;}.cls-8{fill:#59462f;}.cls-9{fill:#a97c50;}.cls-10{fill:#fff;}</style><linearGradient id="Skintone_8" x1="39.93" y1="105.71" x2="39.93" y2="77.56" gradientUnits="userSpaceOnUse"><stop offset="0.01" stop-color="#d2ae9c"/><stop offset="0.5" stop-color="#b9846c"/><stop offset="1" stop-color="#916854"/></linearGradient><linearGradient id="Skintone_8-2" x1="39.93" y1="89.17" x2="39.93" y2="9.32" xlink:href="#Skintone_8"/><linearGradient id="Skintone_8-3" x1="39.66" y1="56.04" x2="39.66" y2="-20.43" xlink:href="#Skintone_8"/></defs><title>Asset 10</title><g id="Layer_2" data-name="Layer 2"><g id="Lessenoverzicht"><g id="card2"><path class="cls-1" d="M26.8,81.1H53a.9.9,0,0,1,1,1v3c0,2.6-28.1,2.8-28.1,0v-3A.9.9,0,0,1,26.8,81.1Z"/><path class="cls-2" d="M39.9,58.7c22,0,40-1.2,40-2.8s-18-2.8-40-2.8S0,54.3,0,55.9,17.9,58.7,39.9,58.7Z"/><path class="cls-3" d="M39.7,58.1c21,0,38.2-.9,38.2-2.1s-17.2-2-38.2-2-38.3.9-38.3,2S18.6,58.1,39.7,58.1Z"/><path class="cls-4" d="M36,39.7a69,69,0,0,1,12.9,9.2,27.7,27.7,0,0,1,2.4,2.5,18,18,0,0,1,4.4,11.3,13,13,0,0,1-3.5,8.9l-1,1H51l-.2-.2-19.3-30h-.1l.2-.2L34,40.7l1.8-1H36Zm12.6,9.5h0a71.4,71.4,0,0,0-12.7-9.1l-1.7,1L32,42.5,51.1,72.1l.8-.8a12.7,12.7,0,0,0,3.3-8.6,17,17,0,0,0-4.2-11A18.8,18.8,0,0,0,48.6,49.2Z"/><path class="cls-4" d="M51.2,72.5H51l-.2-.2-19.3-30h-.1l.2-.2,1.4-.9,1.2-.7h.3l4.8,3.8a52.3,52.3,0,0,1,4.9,4.5,28.6,28.6,0,0,1,7.5,12,16.2,16.2,0,0,1-.4,11.6ZM32,42.5h0L51,72a15.7,15.7,0,0,0,.3-11,29.4,29.4,0,0,0-7.4-11.8A52.3,52.3,0,0,0,39,44.7c-1.6-1.4-3.3-2.6-4.7-3.7l-1,.7Z"/><path class="cls-4" d="M27.9,45.3c.1,1,.8,9.1,3,15.3a30.5,30.5,0,0,0,1.3,3.2,17.1,17.1,0,0,0,8.2,8.4,12.3,12.3,0,0,0,9.2.5l1.1-.4-19-29.6-2.2,1.4-1.6,1.2Zm2.6,15.5h0a69.8,69.8,0,0,1-3-15.6h.1l1.7-1.2,2.3-1.6h.2v.2l19.3,30v.2h-.2l-1.3.6a12.6,12.6,0,0,1-9.5-.6C37,71.2,34,68.4,31.8,64A30.5,30.5,0,0,1,30.5,60.8Z"/><path class="cls-4" d="M51.1,72.6H51a15.9,15.9,0,0,1-10.7-4.4,28.9,28.9,0,0,1-7.8-11.8c-.8-2-1.5-4.2-2.1-6.3l-1.4-6h.1l1.1-.8,1.5-.9h.1l.2.2,19.3,30v.2h-.3Zm-.4-.4h0l-19-29.5-1.2.8-1,.7a52.2,52.2,0,0,0,1.4,5.7,42.1,42.1,0,0,0,2,6.3,29.4,29.4,0,0,0,7.7,11.7A16.2,16.2,0,0,0,50.7,72.2Z"/><path class="cls-5" d="M4.6.3C-.1,4.2,12.7,16.1,16.2,21.4c7,10.5,9.1,16.7,9.6,18.9l6.5-4.1c-1.9-1.5-6.6-5.9-13.3-16.6C15.7,14.2,10.2-2.4,4.6.3Z"/><path class="cls-6" d="M4.6.3a3.8,3.8,0,0,0-.9,1.3l2-.4c2.2-.1,3.5,2.3,5.8,6.6s6.4,13.1,10.1,17.8l9.1,11.6,1.6-1c-1.9-1.5-6.6-5.9-13.3-16.6C15.7,14.2,10.2-2.4,4.6.3Z"/><polygon class="cls-7" points="26.2 41.5 29.7 39.2 29.7 39.2 33.1 37 36.3 40 32 42.8 32 42.8 27.6 45.6 26.2 41.5"/><path class="cls-8" d="M25.5,40.3l6.9-4.4a.8.8,0,1,1,.9,1.3l-7,4.5a.8.8,0,1,1-.8-1.4Z"/><path class="cls-9" d="M79.9,55.9H0C0,71.1,10.8,80.6,25.9,83.2c8.1,1.5,18.9,1.3,28.1.2,1.8-.3,9.8,0,17.7-7.9A28,28,0,0,0,79.9,55.9Z"/><path class="cls-10" d="M71,60A22.2,22.2,0,0,1,56.2,79.9a18.9,18.9,0,0,1-3.4.9h3.4a22,22,0,0,0,20.6-22C76.8,59.2,74.6,59.6,71,60Z"/></g></g></g></svg>